<svg xmlns="http://www.w3.org/2000/svg" viewBox="0 0 1522 202">

  <g>
    <circle cx="100" cy="100" r="100"></circle>
  </g>

  <g>
    <rect x="249.29" y="29.29" width="141.42" height="141.42" transform="translate(23.02 255.56) rotate(-45)"></rect>
  </g>

  <g>
    <polygon points="440 200 640 200 540 0 440 200"></polygon>
  </g>

  <g>
    <path d="M760.03,0s-.56,88.06,100,100c0,0-90.15,2.03-100,100,0,0-1.37-90.31-100-100-2.97-.82,92.86-2.44,100-100Z"></path>
  </g>

  <g>
    <polygon points="1202.12 2.12 1225.73 78.51 1302.12 78.51
        1240.32 125.73 1263.92 202.12 1202.12 154.91
        1140.32 202.12 1163.92 125.73 1102.12 78.51
        1178.51 78.51 1202.12 2.12"></polygon>
  </g>

  <g>
    <polygon points="980.79 0 990 63.84 1027.6 11.62 1006.31 72.46
        1063.69 43.83 1016.77 87.73 1080.79 89.24 1018.99 106.15
        1074.98 137.46 1012.46 123.49 1047.59 177.43
        998.67 135.79 1004.9 200 980.79 140.23 956.68 200
        962.91 135.79 913.99 177.43 949.13 123.49
        886.6 137.46 942.59 106.15 880.79 89.24 944.81 87.73
        897.89 43.83 955.28 72.46 933.98 11.62 971.58 63.84
        980.79 0"></polygon>
  </g>

  <g>
    <rect x="1322.12" y="0" width="200" height="200" rx="35.54" ry="35.54"></rect>
  </g>

</svg>
